<?xml version="1.0" encoding="utf-8"?>
<!-- Generator: Adobe Illustrator 17.0.0, SVG Export Plug-In . SVG Version: 6.00 Build 0)  -->
<!DOCTYPE svg PUBLIC "-//W3C//DTD SVG 1.1//EN" "http://www.w3.org/Graphics/SVG/1.1/DTD/svg11.dtd">
<svg version="1.1" id="Layer_1" xmlns="http://www.w3.org/2000/svg" xmlns:xlink="http://www.w3.org/1999/xlink" x="0px" y="0px"
	 width="621.7px" height="203.7px" viewBox="0 0 621.7 203.7" style="enable-background:new 0 0 621.7 203.7;" xml:space="preserve"
	>
<style type="text/css">
	.st0{fill:#FFFFFF;}
</style>
<g id="XMLID_21_">
	<path id="XMLID_7_" class="st0" d="M86,82.2h23.9v69.5H86V82.2z"/>
	<path id="XMLID_10_" class="st0" d="M131.1,128.9c6.4,4.7,12.1,7,17,7c5,0,7-1.4,7-4.2c0-3.6-6.4-5.3-13.3-8.1
		c-8.1-3.2-17.5-9.2-17.5-20.6c0-13.6,11.1-22.5,27.5-22.5c11.4,0,19.5,4.6,25.6,9.2l-10.6,14.2c-5-3.6-9.9-5.8-14.2-5.8
		c-4,0-6.1,1.1-6.1,3.9c0,3.6,6.1,5,13.1,7.5c8.3,3.1,17.8,8.3,17.8,20.9c0,13.1-10.3,23.1-29.7,23.1c-8.9,0-19.7-3.9-27-9.7
		L131.1,128.9z"/>
	<path id="XMLID_12_" class="st0" d="M222.5,80.6c8.3,0,15.6,3.1,20.3,7.8L232,103.1c-3.1-2.5-5.6-3.3-8.1-3.3
		c-8.9,0-14.2,6.7-14.2,17.2s5.8,17.2,13.3,17.2c4.4,0,8.1-2.2,11.1-4.4l9.5,15c-7,6.1-16.1,8.6-23.4,8.6c-19.7,0-35-13.3-35-36.4
		S202.8,80.6,222.5,80.6z"/>
	<path id="XMLID_14_" class="st0" d="M281.2,80.6c17.8,0,34.5,13.3,34.5,36.4s-16.7,36.4-34.5,36.4s-34.5-13.3-34.5-36.4
		S263.4,80.6,281.2,80.6z M281.2,134.2c7.2,0,10-6.7,10-17.2s-2.8-17.2-10-17.2c-7.2,0-10,6.7-10,17.2S274,134.2,281.2,134.2z"/>
	<path id="XMLID_17_" class="st0" d="M332.3,128.9c6.4,4.7,12.1,7,17,7c5,0,7-1.4,7-4.2c0-3.6-6.4-5.3-13.3-8.1
		c-8.1-3.2-17.5-9.2-17.5-20.6c0-13.6,11.1-22.5,27.5-22.5c11.4,0,19.5,4.6,25.6,9.2l-10.6,14.2c-5-3.6-9.9-5.8-14.2-5.8
		c-4,0-6.1,1.1-6.1,3.9c0,3.6,6.1,5,13.1,7.5c8.3,3.1,17.8,8.3,17.8,20.9c0,13.1-10.3,23.1-29.7,23.1c-8.9,0-19.7-3.9-27-9.7
		L332.3,128.9z"/>
	<path id="XMLID_19_" class="st0" d="M393.2,100.9H384V83.1l10.6-0.8l2.8-18.1h19.7v18.1H433v18.6h-15.8v23.8
		c0,7.6,3.9,10.1,8.3,10.1c2.2,0,4.4-0.6,6.1-1.1l3.6,17.2c-3.6,1.1-8.8,2.5-16.4,2.5c-18.1,0-25.6-11.4-25.6-28.4V100.9z"/>
	<path id="XMLID_24_" class="st0" d="M519.4,80.6c8.3,0,15.6,3.1,20.3,7.8l-10.8,14.7c-3.1-2.5-5.6-3.3-8.1-3.3
		c-8.9,0-14.2,6.7-14.2,17.2s5.8,17.2,13.3,17.2c4.4,0,8.1-2.2,11.1-4.4l9.5,15c-7,6.1-16.1,8.6-23.4,8.6c-19.7,0-35-13.3-35-36.4
		S499.7,80.6,519.4,80.6z"/>
	<path id="XMLID_26_" class="st0" d="M551.4,55h23.4v51.4h0.6l19.2-24.2h25.9l-24.7,28.9l26.1,40.6h-25.9L582,127l-7.2,8.1v16.7
		h-23.4V55z"/>
	<g id="XMLID_33_">
		<polygon id="XMLID_35_" class="st0" points="426,10.6 424.6,0 422.7,10.6 412.1,12.3 422.7,13.9 424.4,24.4 426,13.9 436.6,12.4 
					"/>
		<polygon id="XMLID_34_" class="st0" points="490.1,62.8 489.3,56.6 488.2,62.8 482,63.8 488.2,64.7 489.2,70.8 490.1,64.7 
			496.2,63.8 		"/>
	</g>
	<path id="XMLID_2_" class="st0" d="M459.8,3.2c-7.1,0-13.7,2.4-18.9,6.4c-0.7,1.2-1.3,2.7-2,4.4c-1.7,0.6-3.1,1.3-4.3,1.9
		c-2.3,3.1-4,6.6-5.1,10.5c1.6-0.3,3.7-0.7,6.5-1.1c-0.3,2.4-0.6,5.1-0.6,8h-6.9c0,0.4,0,0.8,0,1.3c0,3.3,0.5,6.5,1.4,9.4
		c1.6,0.3,3.7,0.7,6.3,1c0.5,3,1.1,5.7,1.8,7.9c-2.5-1.1-4.4-2.2-5.5-3c2.8,4.9,6.8,9,11.7,11.8c-0.8-1.2-1.9-3-3.1-5.7
		c2.2,0.7,4.8,1.3,7.6,1.8c0.3,2.6,0.7,4.8,1,6.4c3.1,1.1,6.5,1.6,10,1.6c17.3,0,31.4-14,31.4-31.4C491.2,17.3,477.1,3.2,459.8,3.2z
		 M437.8,43.4c-0.3-2.5-0.5-5.2-0.6-8.2h10.3c0,3.3,0.1,6.3,0.2,9.1C443.8,44,440.5,43.7,437.8,43.4z M447.8,22.4
		c-3.7,0.2-6.9,0.5-9.6,0.8c0.6-3,1.3-5.5,2.1-7.7c2.3-0.8,5-1.6,8.2-2.1C448.3,15.9,448,19,447.8,22.4z M458.9,44.6
		c-3.4,0-6.5-0.1-9.4-0.2c-0.1-2.8-0.2-5.9-0.2-9.2h9.6V44.6z M468.8,56.3c-2.5,0.4-5.2,0.6-8.1,0.6V46.4c3.2,0,6.2-0.1,9-0.2
		C469.5,50.1,469.2,53.5,468.8,56.3z M477.1,29.6l-1.6,10.5l-1.7-10.5L463.3,28l10.6-1.7l1.9-10.6l1.5,10.6l10.5,1.9L477.1,29.6z"/>
	<g id="XMLID_8_">
		<path id="XMLID_36_" class="st0" d="M0,63h26.9c27.7,0,46.8,12.9,46.8,45.1c0,32.2-19,45.9-45.4,45.9H0V63z M25.5,134.7
			c13.2,0,23.5-5.3,23.5-26.6c0-21.3-10.4-25.8-23.5-25.8h-1.4v52.4H25.5z"/>
	</g>
	<path id="XMLID_1_" class="st0" d="M448,81.6h23.9v122.2H448V81.6z"/>
</g>
</svg>
