<?xml version="1.0" encoding="utf-8"?>
<!-- Generator: Adobe Illustrator 17.0.0, SVG Export Plug-In . SVG Version: 6.00 Build 0)  -->
<!DOCTYPE svg PUBLIC "-//W3C//DTD SVG 1.1//EN" "http://www.w3.org/Graphics/SVG/1.1/DTD/svg11.dtd">
<svg version="1.1" id="Layer_1" xmlns="http://www.w3.org/2000/svg" xmlns:xlink="http://www.w3.org/1999/xlink" x="0px" y="0px"
	 width="127px" height="39px" viewBox="0 0 127 39" enable-background="new 0 0 127 39" xml:space="preserve">
<title>spotify</title>
<desc>Created with Sketch.</desc>
<g id="Page-1">
	<g id="spotify">
		<g id="symbol">
			<g id="path-1_1_">
			</g>
			<defs>
				<filter id="Adobe_OpacityMaskFilter" filterUnits="userSpaceOnUse" x="0" y="0.074" width="38.048" height="38.926">
					<feColorMatrix  type="matrix" values="1 0 0 0 0  0 1 0 0 0  0 0 1 0 0  0 0 0 1 0"/>
				</filter>
			</defs>
			<mask maskUnits="userSpaceOnUse" x="0" y="0.074" width="38.048" height="38.926" id="mask-2">
				<g filter="url(#Adobe_OpacityMaskFilter)">
					<polygon id="path-1" fill="#FFFFFF" points="0.011,0.074 126.854,0.074 126.854,38.989 0.011,38.989 					"/>
				</g>
			</mask>
			<path id="Fill-1" mask="url(#mask-2)" fill="#FFFFFF" d="M30.277,17.328c-6.132-3.726-16.247-4.068-22.101-2.251
				c-0.94,0.292-1.934-0.251-2.219-1.213c-0.285-0.962,0.245-1.979,1.186-2.271c6.72-2.087,17.891-1.684,24.95,2.604
				c0.846,0.513,1.123,1.631,0.622,2.494C32.213,17.557,31.12,17.842,30.277,17.328L30.277,17.328L30.277,17.328z M30.076,22.847
				c-0.43,0.714-1.343,0.938-2.04,0.5C22.924,20.132,15.128,19.2,9.08,21.079c-0.784,0.242-1.613-0.21-1.851-1.011
				c-0.236-0.803,0.206-1.649,0.989-1.893c6.909-2.145,15.499-1.106,21.37,2.586C30.285,21.2,30.505,22.134,30.076,22.847
				L30.076,22.847L30.076,22.847z M27.748,28.146c-0.342,0.573-1.072,0.753-1.63,0.404c-4.467-2.793-10.09-3.424-16.712-1.877
				c-0.638,0.15-1.274-0.26-1.42-0.912c-0.146-0.653,0.252-1.303,0.892-1.452c7.246-1.695,13.462-0.966,18.477,2.169
				C27.914,26.827,28.09,27.575,27.748,28.146L27.748,28.146L27.748,28.146z M19.024,0.074C8.518,0.074,0,8.788,0,19.537
				C0,30.287,8.517,39,19.024,39s19.024-8.713,19.024-19.463C38.047,8.788,29.53,0.074,19.024,0.074L19.024,0.074L19.024,0.074z"/>
		</g>
		<path id="Fill-4" fill="#FFFFFF" d="M51.756,18.042c-3.284-0.801-3.869-1.364-3.869-2.546c0-1.116,1.027-1.868,2.556-1.868
			c1.481,0,2.95,0.57,4.489,1.745c0.047,0.035,0.105,0.05,0.162,0.04c0.057-0.009,0.108-0.041,0.142-0.09l1.604-2.313
			c0.066-0.095,0.048-0.227-0.041-0.299c-1.833-1.505-3.896-2.236-6.308-2.236c-3.547,0-6.024,2.178-6.024,5.293
			c0,3.341,2.137,4.524,5.83,5.437c3.143,0.741,3.674,1.361,3.674,2.471c0,1.229-1.073,1.993-2.799,1.993
			c-1.917,0-3.481-0.661-5.231-2.211c-0.043-0.038-0.103-0.056-0.158-0.053c-0.058,0.005-0.111,0.032-0.148,0.078l-1.798,2.189
			c-0.075,0.091-0.066,0.227,0.021,0.305c2.035,1.859,4.539,2.841,7.24,2.841c3.822,0,6.291-2.137,6.291-5.443
			C57.39,20.583,55.758,19.037,51.756,18.042"/>
		<path id="Fill-5" fill="#FFFFFF" d="M68.811,21.787c0,2.36-1.421,4.006-3.455,4.006c-2.011,0-3.528-1.721-3.528-4.006
			s1.517-4.006,3.528-4.006C67.357,17.781,68.811,19.465,68.811,21.787L68.811,21.787L68.811,21.787z M66.036,14.727
			c-1.656,0-3.015,0.668-4.136,2.035v-1.54c0-0.121-0.096-0.22-0.215-0.22h-2.941c-0.119,0-0.215,0.099-0.215,0.22v17.106
			c0,0.122,0.096,0.22,0.215,0.22h2.941c0.119,0,0.215-0.099,0.215-0.22v-5.4c1.121,1.287,2.48,1.915,4.136,1.915
			c3.078,0,6.194-2.424,6.194-7.058C72.23,17.152,69.114,14.727,66.036,14.727L66.036,14.727L66.036,14.727z"/>
		<path id="Fill-6" fill="#FFFFFF" d="M80.217,25.818c-2.108,0-3.698-1.733-3.698-4.031c0-2.307,1.535-3.982,3.649-3.982
			c2.122,0,3.722,1.733,3.722,4.032C83.89,24.144,82.345,25.818,80.217,25.818L80.217,25.818L80.217,25.818z M80.217,14.727
			c-3.964,0-7.069,3.123-7.069,7.11c0,3.944,3.084,7.034,7.021,7.034c3.978,0,7.093-3.112,7.093-7.084
			C87.261,17.828,84.167,14.727,80.217,14.727L80.217,14.727L80.217,14.727z"/>
		<path id="Fill-7" fill="#FFFFFF" d="M95.725,15.002h-3.236v-3.385c0-0.122-0.096-0.22-0.215-0.22h-2.941
			c-0.119,0-0.216,0.099-0.216,0.22v3.385h-1.414c-0.118,0-0.214,0.099-0.214,0.22v2.586c0,0.121,0.096,0.22,0.214,0.22h1.414v6.692
			c0,2.704,1.315,4.075,3.91,4.075c1.055,0,1.93-0.223,2.755-0.702c0.067-0.038,0.109-0.112,0.109-0.191v-2.463
			c0-0.076-0.039-0.148-0.102-0.188c-0.064-0.041-0.144-0.043-0.209-0.01c-0.567,0.292-1.114,0.426-1.726,0.426
			c-0.944,0-1.365-0.438-1.365-1.421v-6.22h3.236c0.119,0,0.215-0.099,0.215-0.22V15.22C95.94,15.102,95.844,15.002,95.725,15.002"
			/>
		<path id="Fill-8" fill="#FFFFFF" d="M107.001,15.016V14.6c0-1.223,0.458-1.769,1.486-1.769c0.613,0,1.106,0.125,1.657,0.313
			c0.068,0.022,0.139,0.011,0.194-0.031c0.057-0.042,0.089-0.108,0.089-0.179v-2.536c0-0.097-0.061-0.183-0.152-0.211
			c-0.583-0.177-1.328-0.359-2.444-0.359c-2.717,0-4.152,1.565-4.152,4.524v0.637h-1.413c-0.119,0-0.216,0.099-0.216,0.22v2.599
			c0,0.121,0.097,0.22,0.216,0.22h1.413v10.321c0,0.122,0.096,0.22,0.214,0.22h2.941c0.119,0,0.215-0.099,0.215-0.22V18.03h2.746
			l4.206,10.319c-0.478,1.084-0.947,1.3-1.588,1.3c-0.518,0-1.064-0.158-1.621-0.471c-0.053-0.029-0.115-0.034-0.171-0.016
			c-0.056,0.02-0.103,0.063-0.127,0.119l-0.997,2.238c-0.048,0.106-0.007,0.23,0.093,0.285c1.041,0.577,1.98,0.823,3.141,0.823
			c2.172,0,3.372-1.035,4.43-3.819l5.102-13.489c0.026-0.068,0.018-0.144-0.023-0.205c-0.04-0.06-0.106-0.096-0.177-0.096h-3.062
			c-0.092,0-0.174,0.06-0.204,0.148l-3.136,9.166l-3.436-9.172c-0.031-0.085-0.112-0.142-0.201-0.142h-5.023"/>
		<path id="Fill-9" fill="#FFFFFF" d="M100.464,15.002h-2.941c-0.119,0-0.215,0.099-0.215,0.22V28.35c0,0.122,0.097,0.22,0.215,0.22
			h2.941c0.119,0,0.215-0.099,0.215-0.22V15.222C100.68,15.102,100.583,15.002,100.464,15.002"/>
		<path id="Fill-10" fill="#FFFFFF" d="M99.009,9.025c-1.165,0-2.111,0.965-2.111,2.157c0,1.193,0.946,2.159,2.111,2.159
			s2.109-0.966,2.109-2.159C101.118,9.99,100.173,9.025,99.009,9.025"/>
		<path id="Fill-11" fill="#FFFFFF" d="M124.895,16.308h-0.539v0.703h0.539c0.269,0,0.429-0.135,0.429-0.352
			C125.324,16.431,125.164,16.308,124.895,16.308L124.895,16.308L124.895,16.308z M125.244,17.311l0.586,0.839h-0.494l-0.527-0.769
			h-0.453v0.769h-0.413v-2.223h0.969c0.505,0,0.837,0.264,0.837,0.709C125.748,17,125.542,17.223,125.244,17.311L125.244,17.311
			L125.244,17.311z M124.785,15.187c-1.06,0-1.862,0.862-1.862,1.918c0,1.055,0.796,1.906,1.852,1.906
			c1.06,0,1.863-0.862,1.863-1.918C126.637,16.038,125.84,15.187,124.785,15.187L124.785,15.187L124.785,15.187z M124.774,19.223
			c-1.164,0-2.07-0.956-2.07-2.118s0.918-2.129,2.081-2.129c1.164,0,2.07,0.956,2.07,2.117
			C126.855,18.255,125.938,19.223,124.774,19.223L124.774,19.223L124.774,19.223z"/>
	</g>
</g>
</svg>
